<mxfile host="app.diagrams.net" modified="2024-05-21T12:52:31.236Z" agent="Mozilla/5.0 (Windows NT 10.0; Win64; x64) AppleWebKit/537.36 (KHTML, like Gecko) Chrome/125.0.0.0 Safari/537.36" etag="8aeiXsqAz6YVplXrEmRi" version="24.4.4" type="device" pages="7">
  <diagram name="main_menu" id="qB6oAMNJOPlMdZmkgFZm">
    <mxGraphModel dx="1207" dy="651" grid="1" gridSize="10" guides="1" tooltips="1" connect="1" arrows="1" fold="1" page="1" pageScale="1" pageWidth="827" pageHeight="1169" math="0" shadow="0">
      <root>
        <mxCell id="0" />
        <mxCell id="1" parent="0" />
        <mxCell id="FlhT3UEW_0sr5WWhTw8I-1" value="" style="edgeStyle=orthogonalEdgeStyle;rounded=0;orthogonalLoop=1;jettySize=auto;html=1;" parent="1" source="FlhT3UEW_0sr5WWhTw8I-2" target="FlhT3UEW_0sr5WWhTw8I-4" edge="1">
          <mxGeometry relative="1" as="geometry" />
        </mxCell>
        <mxCell id="FlhT3UEW_0sr5WWhTw8I-2" value="Mulai" style="strokeWidth=2;html=1;shape=mxgraph.flowchart.terminator;whiteSpace=wrap;" parent="1" vertex="1">
          <mxGeometry x="364" y="10" width="100" height="60" as="geometry" />
        </mxCell>
        <mxCell id="FlhT3UEW_0sr5WWhTw8I-3" value="" style="edgeStyle=orthogonalEdgeStyle;rounded=0;orthogonalLoop=1;jettySize=auto;html=1;" parent="1" source="FlhT3UEW_0sr5WWhTw8I-4" target="FlhT3UEW_0sr5WWhTw8I-7" edge="1">
          <mxGeometry relative="1" as="geometry" />
        </mxCell>
        <mxCell id="FlhT3UEW_0sr5WWhTw8I-4" value="Menu program selamat&amp;nbsp;&lt;div&gt;datang&lt;/div&gt;" style="shape=parallelogram;html=1;strokeWidth=2;perimeter=parallelogramPerimeter;whiteSpace=wrap;rounded=1;arcSize=12;size=0.17250000000000001;" parent="1" vertex="1">
          <mxGeometry x="317.5" y="100" width="193" height="60" as="geometry" />
        </mxCell>
        <mxCell id="FlhT3UEW_0sr5WWhTw8I-5" value="" style="edgeStyle=orthogonalEdgeStyle;rounded=0;orthogonalLoop=1;jettySize=auto;html=1;" parent="1" source="FlhT3UEW_0sr5WWhTw8I-7" target="FlhT3UEW_0sr5WWhTw8I-10" edge="1">
          <mxGeometry relative="1" as="geometry" />
        </mxCell>
        <mxCell id="FlhT3UEW_0sr5WWhTw8I-6" style="edgeStyle=orthogonalEdgeStyle;rounded=0;orthogonalLoop=1;jettySize=auto;html=1;exitX=1;exitY=0.5;exitDx=0;exitDy=0;entryX=0;entryY=0.5;entryDx=0;entryDy=0;" parent="1" source="FlhT3UEW_0sr5WWhTw8I-7" target="FlhT3UEW_0sr5WWhTw8I-31" edge="1">
          <mxGeometry relative="1" as="geometry" />
        </mxCell>
        <mxCell id="FlhT3UEW_0sr5WWhTw8I-7" value="Opsi 1" style="rhombus;whiteSpace=wrap;html=1;" parent="1" vertex="1">
          <mxGeometry x="368" y="200" width="92" height="90" as="geometry" />
        </mxCell>
        <mxCell id="FlhT3UEW_0sr5WWhTw8I-8" value="" style="edgeStyle=orthogonalEdgeStyle;rounded=0;orthogonalLoop=1;jettySize=auto;html=1;" parent="1" source="FlhT3UEW_0sr5WWhTw8I-10" target="FlhT3UEW_0sr5WWhTw8I-13" edge="1">
          <mxGeometry relative="1" as="geometry" />
        </mxCell>
        <mxCell id="FlhT3UEW_0sr5WWhTw8I-9" style="edgeStyle=orthogonalEdgeStyle;rounded=0;orthogonalLoop=1;jettySize=auto;html=1;exitX=1;exitY=0.5;exitDx=0;exitDy=0;entryX=0;entryY=0.5;entryDx=0;entryDy=0;" parent="1" source="FlhT3UEW_0sr5WWhTw8I-10" target="FlhT3UEW_0sr5WWhTw8I-32" edge="1">
          <mxGeometry relative="1" as="geometry" />
        </mxCell>
        <mxCell id="FlhT3UEW_0sr5WWhTw8I-10" value="Opsi 2" style="rhombus;whiteSpace=wrap;html=1;" parent="1" vertex="1">
          <mxGeometry x="368" y="320" width="92" height="90" as="geometry" />
        </mxCell>
        <mxCell id="FlhT3UEW_0sr5WWhTw8I-11" value="" style="edgeStyle=orthogonalEdgeStyle;rounded=0;orthogonalLoop=1;jettySize=auto;html=1;" parent="1" source="FlhT3UEW_0sr5WWhTw8I-13" target="FlhT3UEW_0sr5WWhTw8I-16" edge="1">
          <mxGeometry relative="1" as="geometry" />
        </mxCell>
        <mxCell id="FlhT3UEW_0sr5WWhTw8I-12" style="edgeStyle=orthogonalEdgeStyle;rounded=0;orthogonalLoop=1;jettySize=auto;html=1;exitX=1;exitY=0.5;exitDx=0;exitDy=0;entryX=0;entryY=0.5;entryDx=0;entryDy=0;" parent="1" source="FlhT3UEW_0sr5WWhTw8I-13" target="FlhT3UEW_0sr5WWhTw8I-33" edge="1">
          <mxGeometry relative="1" as="geometry" />
        </mxCell>
        <mxCell id="FlhT3UEW_0sr5WWhTw8I-13" value="Opsi 3" style="rhombus;whiteSpace=wrap;html=1;" parent="1" vertex="1">
          <mxGeometry x="368" y="450" width="92" height="90" as="geometry" />
        </mxCell>
        <mxCell id="FlhT3UEW_0sr5WWhTw8I-14" value="" style="edgeStyle=orthogonalEdgeStyle;rounded=0;orthogonalLoop=1;jettySize=auto;html=1;" parent="1" source="FlhT3UEW_0sr5WWhTw8I-16" target="FlhT3UEW_0sr5WWhTw8I-19" edge="1">
          <mxGeometry relative="1" as="geometry" />
        </mxCell>
        <mxCell id="FlhT3UEW_0sr5WWhTw8I-15" style="edgeStyle=orthogonalEdgeStyle;rounded=0;orthogonalLoop=1;jettySize=auto;html=1;exitX=1;exitY=0.5;exitDx=0;exitDy=0;entryX=0;entryY=0.5;entryDx=0;entryDy=0;" parent="1" source="FlhT3UEW_0sr5WWhTw8I-16" target="FlhT3UEW_0sr5WWhTw8I-34" edge="1">
          <mxGeometry relative="1" as="geometry" />
        </mxCell>
        <mxCell id="FlhT3UEW_0sr5WWhTw8I-16" value="Opsi 4" style="rhombus;whiteSpace=wrap;html=1;" parent="1" vertex="1">
          <mxGeometry x="368" y="580" width="92" height="90" as="geometry" />
        </mxCell>
        <mxCell id="FlhT3UEW_0sr5WWhTw8I-17" value="" style="edgeStyle=orthogonalEdgeStyle;rounded=0;orthogonalLoop=1;jettySize=auto;html=1;" parent="1" source="FlhT3UEW_0sr5WWhTw8I-19" target="FlhT3UEW_0sr5WWhTw8I-22" edge="1">
          <mxGeometry relative="1" as="geometry" />
        </mxCell>
        <mxCell id="FlhT3UEW_0sr5WWhTw8I-18" style="edgeStyle=orthogonalEdgeStyle;rounded=0;orthogonalLoop=1;jettySize=auto;html=1;exitX=1;exitY=0.5;exitDx=0;exitDy=0;entryX=0;entryY=0.5;entryDx=0;entryDy=0;" parent="1" source="FlhT3UEW_0sr5WWhTw8I-19" target="FlhT3UEW_0sr5WWhTw8I-35" edge="1">
          <mxGeometry relative="1" as="geometry" />
        </mxCell>
        <mxCell id="FlhT3UEW_0sr5WWhTw8I-19" value="Opsi 5" style="rhombus;whiteSpace=wrap;html=1;" parent="1" vertex="1">
          <mxGeometry x="368" y="720" width="92" height="90" as="geometry" />
        </mxCell>
        <mxCell id="FlhT3UEW_0sr5WWhTw8I-20" value="" style="edgeStyle=orthogonalEdgeStyle;rounded=0;orthogonalLoop=1;jettySize=auto;html=1;" parent="1" source="FlhT3UEW_0sr5WWhTw8I-22" target="FlhT3UEW_0sr5WWhTw8I-25" edge="1">
          <mxGeometry relative="1" as="geometry" />
        </mxCell>
        <mxCell id="FlhT3UEW_0sr5WWhTw8I-21" style="edgeStyle=orthogonalEdgeStyle;rounded=0;orthogonalLoop=1;jettySize=auto;html=1;exitX=1;exitY=0.5;exitDx=0;exitDy=0;entryX=0;entryY=0.5;entryDx=0;entryDy=0;" parent="1" source="FlhT3UEW_0sr5WWhTw8I-22" target="FlhT3UEW_0sr5WWhTw8I-36" edge="1">
          <mxGeometry relative="1" as="geometry" />
        </mxCell>
        <mxCell id="FlhT3UEW_0sr5WWhTw8I-22" value="Opsi 6" style="rhombus;whiteSpace=wrap;html=1;" parent="1" vertex="1">
          <mxGeometry x="368" y="850" width="92" height="90" as="geometry" />
        </mxCell>
        <mxCell id="FlhT3UEW_0sr5WWhTw8I-23" value="" style="edgeStyle=orthogonalEdgeStyle;rounded=0;orthogonalLoop=1;jettySize=auto;html=1;" parent="1" source="FlhT3UEW_0sr5WWhTw8I-25" target="FlhT3UEW_0sr5WWhTw8I-26" edge="1">
          <mxGeometry relative="1" as="geometry" />
        </mxCell>
        <mxCell id="FlhT3UEW_0sr5WWhTw8I-24" value="" style="edgeStyle=orthogonalEdgeStyle;rounded=0;orthogonalLoop=1;jettySize=auto;html=1;entryX=0.461;entryY=1.006;entryDx=0;entryDy=0;entryPerimeter=0;" parent="1" edge="1">
          <mxGeometry relative="1" as="geometry">
            <mxPoint x="379.03" y="1024.64" as="sourcePoint" />
            <mxPoint x="160.00299999999996" y="469.9999999999999" as="targetPoint" />
          </mxGeometry>
        </mxCell>
        <mxCell id="FlhT3UEW_0sr5WWhTw8I-25" value="Opsi 7" style="rhombus;whiteSpace=wrap;html=1;" parent="1" vertex="1">
          <mxGeometry x="368" y="980" width="92" height="90" as="geometry" />
        </mxCell>
        <mxCell id="FlhT3UEW_0sr5WWhTw8I-26" value="Selesai" style="strokeWidth=2;html=1;shape=mxgraph.flowchart.terminator;whiteSpace=wrap;" parent="1" vertex="1">
          <mxGeometry x="364" y="1100" width="100" height="60" as="geometry" />
        </mxCell>
        <mxCell id="FlhT3UEW_0sr5WWhTw8I-27" style="edgeStyle=orthogonalEdgeStyle;rounded=0;orthogonalLoop=1;jettySize=auto;html=1;exitX=0.5;exitY=0;exitDx=0;exitDy=0;entryX=0;entryY=0.75;entryDx=0;entryDy=0;" parent="1" source="FlhT3UEW_0sr5WWhTw8I-28" target="FlhT3UEW_0sr5WWhTw8I-4" edge="1">
          <mxGeometry relative="1" as="geometry">
            <Array as="points">
              <mxPoint x="157" y="144" />
            </Array>
          </mxGeometry>
        </mxCell>
        <mxCell id="FlhT3UEW_0sr5WWhTw8I-28" value="Input yang dimasukkan&amp;nbsp;&lt;div&gt;salah&lt;/div&gt;" style="shape=parallelogram;html=1;strokeWidth=2;perimeter=parallelogramPerimeter;whiteSpace=wrap;rounded=1;arcSize=12;size=0.17250000000000001;" parent="1" vertex="1">
          <mxGeometry x="60" y="410" width="193" height="60" as="geometry" />
        </mxCell>
        <mxCell id="FlhT3UEW_0sr5WWhTw8I-29" style="edgeStyle=orthogonalEdgeStyle;rounded=0;orthogonalLoop=1;jettySize=auto;html=1;exitX=1;exitY=0.25;exitDx=0;exitDy=0;entryX=0;entryY=0.25;entryDx=0;entryDy=0;" parent="1" source="FlhT3UEW_0sr5WWhTw8I-30" target="FlhT3UEW_0sr5WWhTw8I-4" edge="1">
          <mxGeometry relative="1" as="geometry">
            <Array as="points">
              <mxPoint x="90" y="119" />
            </Array>
          </mxGeometry>
        </mxCell>
        <mxCell id="FlhT3UEW_0sr5WWhTw8I-30" value="&lt;font style=&quot;font-size: 12px;&quot;&gt;G&lt;/font&gt;" style="verticalLabelPosition=middle;verticalAlign=middle;html=1;shape=offPageConnector;rounded=0;size=0.5;whiteSpace=wrap;textShadow=0;labelBorderColor=none;labelBackgroundColor=none;fontColor=default;labelPosition=center;align=center;" parent="1" vertex="1">
          <mxGeometry x="60" y="90" width="60" height="60" as="geometry" />
        </mxCell>
        <mxCell id="FlhT3UEW_0sr5WWhTw8I-31" value="&lt;font style=&quot;font-size: 12px;&quot;&gt;A&lt;/font&gt;" style="verticalLabelPosition=middle;verticalAlign=middle;html=1;shape=offPageConnector;rounded=0;size=0.5833333333333334;whiteSpace=wrap;textShadow=0;labelBorderColor=none;labelBackgroundColor=none;fontColor=default;labelPosition=center;align=center;" parent="1" vertex="1">
          <mxGeometry x="590" y="215" width="60" height="60" as="geometry" />
        </mxCell>
        <mxCell id="FlhT3UEW_0sr5WWhTw8I-32" value="&lt;font style=&quot;font-size: 12px;&quot;&gt;B&lt;/font&gt;" style="verticalLabelPosition=middle;verticalAlign=middle;html=1;shape=offPageConnector;rounded=0;size=0.5833333333333334;whiteSpace=wrap;textShadow=0;labelBorderColor=none;labelBackgroundColor=none;fontColor=default;labelPosition=center;align=center;" parent="1" vertex="1">
          <mxGeometry x="590" y="335" width="60" height="60" as="geometry" />
        </mxCell>
        <mxCell id="FlhT3UEW_0sr5WWhTw8I-33" value="&lt;font style=&quot;font-size: 12px;&quot;&gt;C&lt;/font&gt;" style="verticalLabelPosition=middle;verticalAlign=middle;html=1;shape=offPageConnector;rounded=0;size=0.5833333333333334;whiteSpace=wrap;textShadow=0;labelBorderColor=none;labelBackgroundColor=none;fontColor=default;labelPosition=center;align=center;" parent="1" vertex="1">
          <mxGeometry x="590" y="465" width="60" height="60" as="geometry" />
        </mxCell>
        <mxCell id="FlhT3UEW_0sr5WWhTw8I-34" value="D" style="verticalLabelPosition=middle;verticalAlign=middle;html=1;shape=offPageConnector;rounded=0;size=0.5833333333333334;whiteSpace=wrap;textShadow=0;labelBorderColor=none;labelBackgroundColor=none;fontColor=default;labelPosition=center;align=center;" parent="1" vertex="1">
          <mxGeometry x="590" y="595" width="60" height="60" as="geometry" />
        </mxCell>
        <mxCell id="FlhT3UEW_0sr5WWhTw8I-35" value="&lt;font style=&quot;font-size: 12px;&quot;&gt;E&lt;/font&gt;" style="verticalLabelPosition=middle;verticalAlign=middle;html=1;shape=offPageConnector;rounded=0;size=0.5833333333333334;whiteSpace=wrap;textShadow=0;labelBorderColor=none;labelBackgroundColor=none;fontColor=default;labelPosition=center;align=center;" parent="1" vertex="1">
          <mxGeometry x="590" y="735" width="60" height="60" as="geometry" />
        </mxCell>
        <mxCell id="FlhT3UEW_0sr5WWhTw8I-36" value="&lt;font style=&quot;font-size: 12px;&quot;&gt;F&lt;/font&gt;" style="verticalLabelPosition=middle;verticalAlign=middle;html=1;shape=offPageConnector;rounded=0;size=0.5833333333333334;whiteSpace=wrap;textShadow=0;labelBorderColor=none;labelBackgroundColor=none;fontColor=default;labelPosition=center;align=center;" parent="1" vertex="1">
          <mxGeometry x="590" y="865" width="60" height="60" as="geometry" />
        </mxCell>
        <mxCell id="FlhT3UEW_0sr5WWhTw8I-37" value="Menu Utama" style="text;strokeColor=none;align=center;fillColor=none;html=1;verticalAlign=middle;whiteSpace=wrap;rounded=0;fontStyle=1;fontSize=18;" parent="1" vertex="1">
          <mxGeometry x="5" y="10" width="110" height="30" as="geometry" />
        </mxCell>
        <mxCell id="Van973CGo2YsoL5uyhcO-1" value="Ya" style="text;html=1;align=center;verticalAlign=middle;resizable=0;points=[];autosize=1;strokeColor=none;fillColor=none;" vertex="1" parent="1">
          <mxGeometry x="500" y="215" width="40" height="30" as="geometry" />
        </mxCell>
        <mxCell id="Van973CGo2YsoL5uyhcO-2" value="Ya" style="text;html=1;align=center;verticalAlign=middle;resizable=0;points=[];autosize=1;strokeColor=none;fillColor=none;" vertex="1" parent="1">
          <mxGeometry x="500" y="335" width="40" height="30" as="geometry" />
        </mxCell>
        <mxCell id="Van973CGo2YsoL5uyhcO-3" value="Ya" style="text;html=1;align=center;verticalAlign=middle;resizable=0;points=[];autosize=1;strokeColor=none;fillColor=none;" vertex="1" parent="1">
          <mxGeometry x="500" y="460" width="40" height="30" as="geometry" />
        </mxCell>
        <mxCell id="Van973CGo2YsoL5uyhcO-4" value="Ya" style="text;html=1;align=center;verticalAlign=middle;resizable=0;points=[];autosize=1;strokeColor=none;fillColor=none;" vertex="1" parent="1">
          <mxGeometry x="500" y="595" width="40" height="30" as="geometry" />
        </mxCell>
        <mxCell id="Van973CGo2YsoL5uyhcO-5" value="Ya" style="text;html=1;align=center;verticalAlign=middle;resizable=0;points=[];autosize=1;strokeColor=none;fillColor=none;" vertex="1" parent="1">
          <mxGeometry x="500" y="735" width="40" height="30" as="geometry" />
        </mxCell>
        <mxCell id="Van973CGo2YsoL5uyhcO-6" value="Ya" style="text;html=1;align=center;verticalAlign=middle;resizable=0;points=[];autosize=1;strokeColor=none;fillColor=none;" vertex="1" parent="1">
          <mxGeometry x="500" y="860" width="40" height="30" as="geometry" />
        </mxCell>
        <mxCell id="Van973CGo2YsoL5uyhcO-7" value="Ya" style="text;html=1;align=center;verticalAlign=middle;resizable=0;points=[];autosize=1;strokeColor=none;fillColor=none;" vertex="1" parent="1">
          <mxGeometry x="420" y="1060" width="40" height="30" as="geometry" />
        </mxCell>
        <mxCell id="Van973CGo2YsoL5uyhcO-8" value="Tidak" style="text;html=1;align=center;verticalAlign=middle;resizable=0;points=[];autosize=1;strokeColor=none;fillColor=none;" vertex="1" parent="1">
          <mxGeometry x="240" y="1000" width="50" height="30" as="geometry" />
        </mxCell>
        <mxCell id="Van973CGo2YsoL5uyhcO-9" value="Tidak" style="text;html=1;align=center;verticalAlign=middle;resizable=0;points=[];autosize=1;strokeColor=none;fillColor=none;" vertex="1" parent="1">
          <mxGeometry x="420" y="940" width="50" height="30" as="geometry" />
        </mxCell>
        <mxCell id="Van973CGo2YsoL5uyhcO-10" value="Tidak" style="text;html=1;align=center;verticalAlign=middle;resizable=0;points=[];autosize=1;strokeColor=none;fillColor=none;" vertex="1" parent="1">
          <mxGeometry x="420" y="810" width="50" height="30" as="geometry" />
        </mxCell>
        <mxCell id="Van973CGo2YsoL5uyhcO-11" value="Tidak" style="text;html=1;align=center;verticalAlign=middle;resizable=0;points=[];autosize=1;strokeColor=none;fillColor=none;" vertex="1" parent="1">
          <mxGeometry x="420" y="670" width="50" height="30" as="geometry" />
        </mxCell>
        <mxCell id="Van973CGo2YsoL5uyhcO-12" value="Tidak" style="text;html=1;align=center;verticalAlign=middle;resizable=0;points=[];autosize=1;strokeColor=none;fillColor=none;" vertex="1" parent="1">
          <mxGeometry x="420" y="540" width="50" height="30" as="geometry" />
        </mxCell>
        <mxCell id="Van973CGo2YsoL5uyhcO-13" value="Tidak" style="text;html=1;align=center;verticalAlign=middle;resizable=0;points=[];autosize=1;strokeColor=none;fillColor=none;" vertex="1" parent="1">
          <mxGeometry x="420" y="410" width="50" height="30" as="geometry" />
        </mxCell>
        <mxCell id="Van973CGo2YsoL5uyhcO-14" value="Tidak" style="text;html=1;align=center;verticalAlign=middle;resizable=0;points=[];autosize=1;strokeColor=none;fillColor=none;" vertex="1" parent="1">
          <mxGeometry x="420" y="290" width="50" height="30" as="geometry" />
        </mxCell>
      </root>
    </mxGraphModel>
  </diagram>
  <diagram name="read_data" id="RiGRVqC5kk6REZ8GSzCc">
    <mxGraphModel dx="1207" dy="651" grid="1" gridSize="10" guides="1" tooltips="1" connect="1" arrows="1" fold="1" page="1" pageScale="1" pageWidth="827" pageHeight="1169" math="0" shadow="0">
      <root>
        <mxCell id="0" />
        <mxCell id="1" parent="0" />
        <mxCell id="8qZtXnJF7RahZSj52U_G-1" value="Baca Data" style="text;strokeColor=none;align=center;fillColor=none;html=1;verticalAlign=middle;whiteSpace=wrap;rounded=0;fontStyle=1;fontSize=18;" parent="1" vertex="1">
          <mxGeometry x="5" y="10" width="110" height="30" as="geometry" />
        </mxCell>
        <mxCell id="Lju-gav2dLlKnLAhShjA-3" style="edgeStyle=orthogonalEdgeStyle;rounded=0;orthogonalLoop=1;jettySize=auto;html=1;exitX=0.5;exitY=1;exitDx=0;exitDy=0;entryX=0.5;entryY=0;entryDx=0;entryDy=0;" parent="1" source="-fuLBVae2BvsCfeYTGC9-1" target="Lju-gav2dLlKnLAhShjA-1" edge="1">
          <mxGeometry relative="1" as="geometry" />
        </mxCell>
        <mxCell id="-fuLBVae2BvsCfeYTGC9-1" value="&lt;font style=&quot;font-size: 12px;&quot;&gt;A&lt;/font&gt;" style="verticalLabelPosition=middle;verticalAlign=middle;html=1;shape=offPageConnector;rounded=0;size=0.5833333333333334;whiteSpace=wrap;textShadow=0;labelBorderColor=none;labelBackgroundColor=none;fontColor=default;labelPosition=center;align=center;" parent="1" vertex="1">
          <mxGeometry x="383.24" y="70" width="60" height="60" as="geometry" />
        </mxCell>
        <mxCell id="jiXzvsAna_qlPHVtCiz5-2" style="edgeStyle=orthogonalEdgeStyle;rounded=0;orthogonalLoop=1;jettySize=auto;html=1;exitX=0.5;exitY=1;exitDx=0;exitDy=0;entryX=0.5;entryY=0;entryDx=0;entryDy=0;" parent="1" source="Lju-gav2dLlKnLAhShjA-1" target="jiXzvsAna_qlPHVtCiz5-1" edge="1">
          <mxGeometry relative="1" as="geometry" />
        </mxCell>
        <mxCell id="Lju-gav2dLlKnLAhShjA-1" value="Menampilkan data karyawan" style="shape=parallelogram;html=1;strokeWidth=2;perimeter=parallelogramPerimeter;whiteSpace=wrap;rounded=1;arcSize=12;size=0.17250000000000001;" parent="1" vertex="1">
          <mxGeometry x="312.75" y="240" width="202.5" height="70" as="geometry" />
        </mxCell>
        <mxCell id="Ea3zwVsCN1duvdT9tbKu-2" style="edgeStyle=orthogonalEdgeStyle;rounded=0;orthogonalLoop=1;jettySize=auto;html=1;exitX=0;exitY=0.5;exitDx=0;exitDy=0;entryX=0.5;entryY=1;entryDx=0;entryDy=0;" parent="1" source="jiXzvsAna_qlPHVtCiz5-1" target="Ea3zwVsCN1duvdT9tbKu-1" edge="1">
          <mxGeometry relative="1" as="geometry" />
        </mxCell>
        <mxCell id="jiXzvsAna_qlPHVtCiz5-1" value="Lanjut ke menu utama atau keluar?" style="rhombus;whiteSpace=wrap;html=1;" parent="1" vertex="1">
          <mxGeometry x="340.52000000000004" y="428" width="145.44" height="140" as="geometry" />
        </mxCell>
        <mxCell id="E7-83Grx6-k1d3Tg4cFf-1" value="Selesai" style="strokeWidth=2;html=1;shape=mxgraph.flowchart.terminator;whiteSpace=wrap;" parent="1" vertex="1">
          <mxGeometry x="363.24" y="730" width="100" height="60" as="geometry" />
        </mxCell>
        <mxCell id="E7-83Grx6-k1d3Tg4cFf-2" style="edgeStyle=orthogonalEdgeStyle;rounded=0;orthogonalLoop=1;jettySize=auto;html=1;exitX=0.5;exitY=1;exitDx=0;exitDy=0;entryX=0.5;entryY=0;entryDx=0;entryDy=0;entryPerimeter=0;" parent="1" source="jiXzvsAna_qlPHVtCiz5-1" target="E7-83Grx6-k1d3Tg4cFf-1" edge="1">
          <mxGeometry relative="1" as="geometry" />
        </mxCell>
        <mxCell id="Ea3zwVsCN1duvdT9tbKu-1" value="&lt;font style=&quot;font-size: 12px;&quot;&gt;G&lt;/font&gt;" style="verticalLabelPosition=middle;verticalAlign=middle;html=1;shape=offPageConnector;rounded=0;size=0.5;whiteSpace=wrap;textShadow=0;labelBorderColor=none;labelBackgroundColor=none;fontColor=default;labelPosition=center;align=center;" parent="1" vertex="1">
          <mxGeometry x="100" y="260" width="60" height="60" as="geometry" />
        </mxCell>
        <mxCell id="YAZWlvxKxAy2A5at4Lfk-1" value="Ya" style="text;html=1;align=center;verticalAlign=middle;resizable=0;points=[];autosize=1;strokeColor=none;fillColor=none;" parent="1" vertex="1">
          <mxGeometry x="230" y="470" width="40" height="30" as="geometry" />
        </mxCell>
        <mxCell id="YAZWlvxKxAy2A5at4Lfk-2" value="Tidak" style="text;html=1;align=center;verticalAlign=middle;resizable=0;points=[];autosize=1;strokeColor=none;fillColor=none;" parent="1" vertex="1">
          <mxGeometry x="414" y="630" width="50" height="30" as="geometry" />
        </mxCell>
      </root>
    </mxGraphModel>
  </diagram>
  <diagram name="create_data" id="TNhRC8DHdBJC5wp6LsGn">
    <mxGraphModel dx="1207" dy="651" grid="1" gridSize="10" guides="1" tooltips="1" connect="1" arrows="1" fold="1" page="1" pageScale="1" pageWidth="827" pageHeight="1169" math="0" shadow="0">
      <root>
        <mxCell id="6Xc-942YzRekp2biPASi-0" />
        <mxCell id="6Xc-942YzRekp2biPASi-1" parent="6Xc-942YzRekp2biPASi-0" />
        <mxCell id="6Xc-942YzRekp2biPASi-2" value="Tambah Data" style="text;strokeColor=none;align=center;fillColor=none;html=1;verticalAlign=middle;whiteSpace=wrap;rounded=0;fontStyle=1;fontSize=18;" parent="6Xc-942YzRekp2biPASi-1" vertex="1">
          <mxGeometry y="10" width="140" height="30" as="geometry" />
        </mxCell>
        <mxCell id="T1dSmCm0bRuZNZxUCCLf-0" style="edgeStyle=orthogonalEdgeStyle;rounded=0;orthogonalLoop=1;jettySize=auto;html=1;exitX=0.5;exitY=1;exitDx=0;exitDy=0;entryX=0.5;entryY=0;entryDx=0;entryDy=0;" parent="6Xc-942YzRekp2biPASi-1" source="6Xc-942YzRekp2biPASi-4" target="6Xc-942YzRekp2biPASi-6" edge="1">
          <mxGeometry relative="1" as="geometry" />
        </mxCell>
        <mxCell id="6Xc-942YzRekp2biPASi-4" value="&lt;font style=&quot;font-size: 12px;&quot;&gt;B&lt;/font&gt;" style="verticalLabelPosition=middle;verticalAlign=middle;html=1;shape=offPageConnector;rounded=0;size=0.5;whiteSpace=wrap;textShadow=0;labelBorderColor=none;labelBackgroundColor=none;fontColor=default;labelPosition=center;align=center;" parent="6Xc-942YzRekp2biPASi-1" vertex="1">
          <mxGeometry x="384" y="60" width="60" height="60" as="geometry" />
        </mxCell>
        <mxCell id="gASQm25_ZUMx7LtCjupk-1" style="edgeStyle=orthogonalEdgeStyle;rounded=0;orthogonalLoop=1;jettySize=auto;html=1;exitX=0.5;exitY=1;exitDx=0;exitDy=0;entryX=0.5;entryY=0;entryDx=0;entryDy=0;" edge="1" parent="6Xc-942YzRekp2biPASi-1" source="6Xc-942YzRekp2biPASi-6" target="gASQm25_ZUMx7LtCjupk-0">
          <mxGeometry relative="1" as="geometry" />
        </mxCell>
        <mxCell id="6Xc-942YzRekp2biPASi-6" value="Input nama, umur, jenis kelamin,alamat,divisi,level,jabatan,gaji" style="shape=parallelogram;html=1;strokeWidth=2;perimeter=parallelogramPerimeter;whiteSpace=wrap;rounded=1;arcSize=12;size=0.17250000000000001;" parent="6Xc-942YzRekp2biPASi-1" vertex="1">
          <mxGeometry x="274" y="170" width="280" height="60" as="geometry" />
        </mxCell>
        <mxCell id="6Xc-942YzRekp2biPASi-7" style="edgeStyle=orthogonalEdgeStyle;rounded=0;orthogonalLoop=1;jettySize=auto;html=1;exitX=0.5;exitY=1;exitDx=0;exitDy=0;entryX=0.5;entryY=0;entryDx=0;entryDy=0;" parent="6Xc-942YzRekp2biPASi-1" source="6Xc-942YzRekp2biPASi-8" target="6Xc-942YzRekp2biPASi-11" edge="1">
          <mxGeometry relative="1" as="geometry" />
        </mxCell>
        <mxCell id="6Xc-942YzRekp2biPASi-8" value="Proses tambah data" style="rounded=1;whiteSpace=wrap;html=1;" parent="6Xc-942YzRekp2biPASi-1" vertex="1">
          <mxGeometry x="341" y="490" width="146" height="80" as="geometry" />
        </mxCell>
        <mxCell id="6Xc-942YzRekp2biPASi-9" style="edgeStyle=orthogonalEdgeStyle;rounded=0;orthogonalLoop=1;jettySize=auto;html=1;exitX=0.5;exitY=1;exitDx=0;exitDy=0;entryX=0.5;entryY=0;entryDx=0;entryDy=0;" parent="6Xc-942YzRekp2biPASi-1" source="6Xc-942YzRekp2biPASi-11" target="6Xc-942YzRekp2biPASi-15" edge="1">
          <mxGeometry relative="1" as="geometry" />
        </mxCell>
        <mxCell id="6Xc-942YzRekp2biPASi-10" style="edgeStyle=orthogonalEdgeStyle;rounded=0;orthogonalLoop=1;jettySize=auto;html=1;exitX=0;exitY=0.5;exitDx=0;exitDy=0;entryX=0.5;entryY=1;entryDx=0;entryDy=0;" parent="6Xc-942YzRekp2biPASi-1" source="6Xc-942YzRekp2biPASi-11" target="6Xc-942YzRekp2biPASi-13" edge="1">
          <mxGeometry relative="1" as="geometry" />
        </mxCell>
        <mxCell id="6Xc-942YzRekp2biPASi-11" value="Berhasil input?" style="rhombus;whiteSpace=wrap;html=1;rounded=0;" parent="6Xc-942YzRekp2biPASi-1" vertex="1">
          <mxGeometry x="355.32" y="638" width="117.37" height="120" as="geometry" />
        </mxCell>
        <mxCell id="6Xc-942YzRekp2biPASi-12" style="edgeStyle=orthogonalEdgeStyle;rounded=0;orthogonalLoop=1;jettySize=auto;html=1;exitX=0.5;exitY=0;exitDx=0;exitDy=0;entryX=0;entryY=0.25;entryDx=0;entryDy=0;" parent="6Xc-942YzRekp2biPASi-1" source="6Xc-942YzRekp2biPASi-13" target="6Xc-942YzRekp2biPASi-6" edge="1">
          <mxGeometry relative="1" as="geometry">
            <Array as="points">
              <mxPoint x="125" y="189" />
            </Array>
          </mxGeometry>
        </mxCell>
        <mxCell id="6Xc-942YzRekp2biPASi-13" value="Ada kesalahan dalam&amp;nbsp;&lt;div&gt;input data&lt;/div&gt;" style="shape=parallelogram;html=1;strokeWidth=2;perimeter=parallelogramPerimeter;whiteSpace=wrap;rounded=1;arcSize=12;size=0.23;" parent="6Xc-942YzRekp2biPASi-1" vertex="1">
          <mxGeometry x="30" y="540" width="190" height="60" as="geometry" />
        </mxCell>
        <mxCell id="6Xc-942YzRekp2biPASi-14" style="edgeStyle=orthogonalEdgeStyle;rounded=0;orthogonalLoop=1;jettySize=auto;html=1;exitX=0.5;exitY=1;exitDx=0;exitDy=0;entryX=0.5;entryY=0;entryDx=0;entryDy=0;" parent="6Xc-942YzRekp2biPASi-1" source="6Xc-942YzRekp2biPASi-15" target="6Xc-942YzRekp2biPASi-17" edge="1">
          <mxGeometry relative="1" as="geometry" />
        </mxCell>
        <mxCell id="6Xc-942YzRekp2biPASi-15" value="Data berhasil ditambah" style="shape=parallelogram;html=1;strokeWidth=2;perimeter=parallelogramPerimeter;whiteSpace=wrap;rounded=1;arcSize=12;size=0.23;" parent="6Xc-942YzRekp2biPASi-1" vertex="1">
          <mxGeometry x="319" y="820" width="190" height="60" as="geometry" />
        </mxCell>
        <mxCell id="6Xc-942YzRekp2biPASi-16" style="edgeStyle=orthogonalEdgeStyle;rounded=0;orthogonalLoop=1;jettySize=auto;html=1;exitX=1;exitY=0.5;exitDx=0;exitDy=0;entryX=1;entryY=0.25;entryDx=0;entryDy=0;" parent="6Xc-942YzRekp2biPASi-1" source="6Xc-942YzRekp2biPASi-17" target="6Xc-942YzRekp2biPASi-6" edge="1">
          <mxGeometry relative="1" as="geometry">
            <Array as="points">
              <mxPoint x="690" y="1000" />
              <mxPoint x="690" y="186" />
            </Array>
          </mxGeometry>
        </mxCell>
        <mxCell id="6Xc-942YzRekp2biPASi-17" value="Apakah lanjut?" style="rhombus;whiteSpace=wrap;html=1;" parent="6Xc-942YzRekp2biPASi-1" vertex="1">
          <mxGeometry x="355" y="940" width="117.37" height="120" as="geometry" />
        </mxCell>
        <mxCell id="6Xc-942YzRekp2biPASi-18" value="Selesai" style="strokeWidth=2;html=1;shape=mxgraph.flowchart.terminator;whiteSpace=wrap;" parent="6Xc-942YzRekp2biPASi-1" vertex="1">
          <mxGeometry x="364" y="1100" width="100" height="60" as="geometry" />
        </mxCell>
        <mxCell id="6Xc-942YzRekp2biPASi-19" style="edgeStyle=orthogonalEdgeStyle;rounded=0;orthogonalLoop=1;jettySize=auto;html=1;exitX=0.5;exitY=1;exitDx=0;exitDy=0;entryX=0.5;entryY=0;entryDx=0;entryDy=0;entryPerimeter=0;" parent="6Xc-942YzRekp2biPASi-1" source="6Xc-942YzRekp2biPASi-17" target="6Xc-942YzRekp2biPASi-18" edge="1">
          <mxGeometry relative="1" as="geometry" />
        </mxCell>
        <mxCell id="Q8gtAGCLLTn1pP9uTIo5-0" value="Ya" style="text;html=1;align=center;verticalAlign=middle;resizable=0;points=[];autosize=1;strokeColor=none;fillColor=none;" parent="6Xc-942YzRekp2biPASi-1" vertex="1">
          <mxGeometry x="414" y="770" width="40" height="30" as="geometry" />
        </mxCell>
        <mxCell id="Q8gtAGCLLTn1pP9uTIo5-1" value="Tidak" style="text;html=1;align=center;verticalAlign=middle;resizable=0;points=[];autosize=1;strokeColor=none;fillColor=none;" parent="6Xc-942YzRekp2biPASi-1" vertex="1">
          <mxGeometry x="224" y="670" width="50" height="30" as="geometry" />
        </mxCell>
        <mxCell id="Q8gtAGCLLTn1pP9uTIo5-2" value="Tidak" style="text;html=1;align=center;verticalAlign=middle;resizable=0;points=[];autosize=1;strokeColor=none;fillColor=none;" parent="6Xc-942YzRekp2biPASi-1" vertex="1">
          <mxGeometry x="414" y="1060" width="50" height="30" as="geometry" />
        </mxCell>
        <mxCell id="Q8gtAGCLLTn1pP9uTIo5-3" value="Ya" style="text;html=1;align=center;verticalAlign=middle;resizable=0;points=[];autosize=1;strokeColor=none;fillColor=none;" parent="6Xc-942YzRekp2biPASi-1" vertex="1">
          <mxGeometry x="550" y="970" width="40" height="30" as="geometry" />
        </mxCell>
        <mxCell id="gASQm25_ZUMx7LtCjupk-2" style="edgeStyle=orthogonalEdgeStyle;rounded=0;orthogonalLoop=1;jettySize=auto;html=1;exitX=0.5;exitY=1;exitDx=0;exitDy=0;entryX=0.5;entryY=0;entryDx=0;entryDy=0;" edge="1" parent="6Xc-942YzRekp2biPASi-1" source="gASQm25_ZUMx7LtCjupk-0" target="6Xc-942YzRekp2biPASi-8">
          <mxGeometry relative="1" as="geometry" />
        </mxCell>
        <mxCell id="gASQm25_ZUMx7LtCjupk-0" value="Apakah nama terduplikat?" style="rhombus;whiteSpace=wrap;html=1;rounded=0;" vertex="1" parent="6Xc-942YzRekp2biPASi-1">
          <mxGeometry x="355.32" y="300" width="117.37" height="120" as="geometry" />
        </mxCell>
        <mxCell id="gASQm25_ZUMx7LtCjupk-3" value="Tidak" style="text;html=1;align=center;verticalAlign=middle;resizable=0;points=[];autosize=1;strokeColor=none;fillColor=none;" vertex="1" parent="6Xc-942YzRekp2biPASi-1">
          <mxGeometry x="414" y="430" width="50" height="30" as="geometry" />
        </mxCell>
        <mxCell id="gASQm25_ZUMx7LtCjupk-5" style="edgeStyle=orthogonalEdgeStyle;rounded=0;orthogonalLoop=1;jettySize=auto;html=1;exitX=0;exitY=0.5;exitDx=0;exitDy=0;entryX=0.039;entryY=1.039;entryDx=0;entryDy=0;entryPerimeter=0;" edge="1" parent="6Xc-942YzRekp2biPASi-1" source="gASQm25_ZUMx7LtCjupk-0" target="6Xc-942YzRekp2biPASi-6">
          <mxGeometry relative="1" as="geometry" />
        </mxCell>
        <mxCell id="gASQm25_ZUMx7LtCjupk-6" value="Ya" style="text;html=1;align=center;verticalAlign=middle;resizable=0;points=[];autosize=1;strokeColor=none;fillColor=none;" vertex="1" parent="6Xc-942YzRekp2biPASi-1">
          <mxGeometry x="301" y="330" width="40" height="30" as="geometry" />
        </mxCell>
      </root>
    </mxGraphModel>
  </diagram>
  <diagram name="update_data" id="q01fh3pgiVOh3AE41eRW">
    <mxGraphModel dx="1207" dy="651" grid="1" gridSize="10" guides="1" tooltips="1" connect="1" arrows="1" fold="1" page="1" pageScale="1" pageWidth="827" pageHeight="1169" math="0" shadow="0">
      <root>
        <mxCell id="4TsLhCKxdJe9Ih-m7w37-0" />
        <mxCell id="4TsLhCKxdJe9Ih-m7w37-1" parent="4TsLhCKxdJe9Ih-m7w37-0" />
        <mxCell id="4TsLhCKxdJe9Ih-m7w37-2" value="Ubah Data" style="text;strokeColor=none;align=center;fillColor=none;html=1;verticalAlign=middle;whiteSpace=wrap;rounded=0;fontStyle=1;fontSize=18;" parent="4TsLhCKxdJe9Ih-m7w37-1" vertex="1">
          <mxGeometry y="10" width="140" height="30" as="geometry" />
        </mxCell>
        <mxCell id="M9QDltxLTohxXzTE751H-1" style="edgeStyle=orthogonalEdgeStyle;rounded=0;orthogonalLoop=1;jettySize=auto;html=1;exitX=0.5;exitY=1;exitDx=0;exitDy=0;entryX=0.5;entryY=0;entryDx=0;entryDy=0;" parent="4TsLhCKxdJe9Ih-m7w37-1" source="4TsLhCKxdJe9Ih-m7w37-4" target="M9QDltxLTohxXzTE751H-0" edge="1">
          <mxGeometry relative="1" as="geometry" />
        </mxCell>
        <mxCell id="4TsLhCKxdJe9Ih-m7w37-4" value="&lt;font style=&quot;font-size: 12px;&quot;&gt;C&lt;/font&gt;" style="verticalLabelPosition=middle;verticalAlign=middle;html=1;shape=offPageConnector;rounded=0;size=0.5;whiteSpace=wrap;textShadow=0;labelBorderColor=none;labelBackgroundColor=none;fontColor=default;labelPosition=center;align=center;" parent="4TsLhCKxdJe9Ih-m7w37-1" vertex="1">
          <mxGeometry x="384" y="60" width="60" height="60" as="geometry" />
        </mxCell>
        <mxCell id="4TsLhCKxdJe9Ih-m7w37-5" style="edgeStyle=orthogonalEdgeStyle;rounded=0;orthogonalLoop=1;jettySize=auto;html=1;exitX=0.5;exitY=1;exitDx=0;exitDy=0;entryX=0.5;entryY=0;entryDx=0;entryDy=0;" parent="4TsLhCKxdJe9Ih-m7w37-1" source="4TsLhCKxdJe9Ih-m7w37-6" target="4TsLhCKxdJe9Ih-m7w37-8" edge="1">
          <mxGeometry relative="1" as="geometry" />
        </mxCell>
        <mxCell id="4TsLhCKxdJe9Ih-m7w37-6" value="Input nama, umur, jenis kelamin,alamat,divisi,level,jabatan,gaji" style="shape=parallelogram;html=1;strokeWidth=2;perimeter=parallelogramPerimeter;whiteSpace=wrap;rounded=1;arcSize=12;size=0.17250000000000001;" parent="4TsLhCKxdJe9Ih-m7w37-1" vertex="1">
          <mxGeometry x="274" y="340" width="280" height="60" as="geometry" />
        </mxCell>
        <mxCell id="4TsLhCKxdJe9Ih-m7w37-7" style="edgeStyle=orthogonalEdgeStyle;rounded=0;orthogonalLoop=1;jettySize=auto;html=1;exitX=0.5;exitY=1;exitDx=0;exitDy=0;entryX=0.5;entryY=0;entryDx=0;entryDy=0;" parent="4TsLhCKxdJe9Ih-m7w37-1" source="4TsLhCKxdJe9Ih-m7w37-8" target="4TsLhCKxdJe9Ih-m7w37-11" edge="1">
          <mxGeometry relative="1" as="geometry" />
        </mxCell>
        <mxCell id="4TsLhCKxdJe9Ih-m7w37-8" value="Proses ubah data" style="rounded=1;whiteSpace=wrap;html=1;" parent="4TsLhCKxdJe9Ih-m7w37-1" vertex="1">
          <mxGeometry x="341" y="460" width="146" height="80" as="geometry" />
        </mxCell>
        <mxCell id="4TsLhCKxdJe9Ih-m7w37-9" style="edgeStyle=orthogonalEdgeStyle;rounded=0;orthogonalLoop=1;jettySize=auto;html=1;exitX=0.5;exitY=1;exitDx=0;exitDy=0;entryX=0.5;entryY=0;entryDx=0;entryDy=0;" parent="4TsLhCKxdJe9Ih-m7w37-1" source="4TsLhCKxdJe9Ih-m7w37-11" target="4TsLhCKxdJe9Ih-m7w37-15" edge="1">
          <mxGeometry relative="1" as="geometry" />
        </mxCell>
        <mxCell id="4TsLhCKxdJe9Ih-m7w37-10" style="edgeStyle=orthogonalEdgeStyle;rounded=0;orthogonalLoop=1;jettySize=auto;html=1;exitX=0;exitY=0.5;exitDx=0;exitDy=0;entryX=0.5;entryY=1;entryDx=0;entryDy=0;" parent="4TsLhCKxdJe9Ih-m7w37-1" source="4TsLhCKxdJe9Ih-m7w37-11" target="4TsLhCKxdJe9Ih-m7w37-13" edge="1">
          <mxGeometry relative="1" as="geometry" />
        </mxCell>
        <mxCell id="4TsLhCKxdJe9Ih-m7w37-11" value="Berhasil input?" style="rhombus;whiteSpace=wrap;html=1;rounded=0;" parent="4TsLhCKxdJe9Ih-m7w37-1" vertex="1">
          <mxGeometry x="355.32" y="620" width="117.37" height="120" as="geometry" />
        </mxCell>
        <mxCell id="4TsLhCKxdJe9Ih-m7w37-12" style="edgeStyle=orthogonalEdgeStyle;rounded=0;orthogonalLoop=1;jettySize=auto;html=1;exitX=0.5;exitY=0;exitDx=0;exitDy=0;entryX=0;entryY=0.25;entryDx=0;entryDy=0;" parent="4TsLhCKxdJe9Ih-m7w37-1" source="4TsLhCKxdJe9Ih-m7w37-13" target="4TsLhCKxdJe9Ih-m7w37-6" edge="1">
          <mxGeometry relative="1" as="geometry">
            <Array as="points">
              <mxPoint x="125" y="359" />
            </Array>
          </mxGeometry>
        </mxCell>
        <mxCell id="4TsLhCKxdJe9Ih-m7w37-13" value="Ada kesalahan dalam&amp;nbsp;&lt;div&gt;input data&lt;/div&gt;" style="shape=parallelogram;html=1;strokeWidth=2;perimeter=parallelogramPerimeter;whiteSpace=wrap;rounded=1;arcSize=12;size=0.23;" parent="4TsLhCKxdJe9Ih-m7w37-1" vertex="1">
          <mxGeometry x="30" y="540" width="190" height="60" as="geometry" />
        </mxCell>
        <mxCell id="4TsLhCKxdJe9Ih-m7w37-14" style="edgeStyle=orthogonalEdgeStyle;rounded=0;orthogonalLoop=1;jettySize=auto;html=1;exitX=0.5;exitY=1;exitDx=0;exitDy=0;entryX=0.5;entryY=0;entryDx=0;entryDy=0;" parent="4TsLhCKxdJe9Ih-m7w37-1" source="4TsLhCKxdJe9Ih-m7w37-15" target="4TsLhCKxdJe9Ih-m7w37-17" edge="1">
          <mxGeometry relative="1" as="geometry" />
        </mxCell>
        <mxCell id="4TsLhCKxdJe9Ih-m7w37-15" value="Data berhasil diubah" style="shape=parallelogram;html=1;strokeWidth=2;perimeter=parallelogramPerimeter;whiteSpace=wrap;rounded=1;arcSize=12;size=0.23;" parent="4TsLhCKxdJe9Ih-m7w37-1" vertex="1">
          <mxGeometry x="319" y="810" width="190" height="60" as="geometry" />
        </mxCell>
        <mxCell id="4TsLhCKxdJe9Ih-m7w37-16" style="edgeStyle=orthogonalEdgeStyle;rounded=0;orthogonalLoop=1;jettySize=auto;html=1;exitX=1;exitY=0.5;exitDx=0;exitDy=0;entryX=1;entryY=0.25;entryDx=0;entryDy=0;" parent="4TsLhCKxdJe9Ih-m7w37-1" source="4TsLhCKxdJe9Ih-m7w37-17" target="4TsLhCKxdJe9Ih-m7w37-6" edge="1">
          <mxGeometry relative="1" as="geometry">
            <Array as="points">
              <mxPoint x="690" y="1000" />
              <mxPoint x="690" y="356" />
            </Array>
          </mxGeometry>
        </mxCell>
        <mxCell id="4TsLhCKxdJe9Ih-m7w37-17" value="Apakah lanjut?" style="rhombus;whiteSpace=wrap;html=1;" parent="4TsLhCKxdJe9Ih-m7w37-1" vertex="1">
          <mxGeometry x="355" y="940" width="117.37" height="120" as="geometry" />
        </mxCell>
        <mxCell id="4TsLhCKxdJe9Ih-m7w37-18" value="Selesai" style="strokeWidth=2;html=1;shape=mxgraph.flowchart.terminator;whiteSpace=wrap;" parent="4TsLhCKxdJe9Ih-m7w37-1" vertex="1">
          <mxGeometry x="364" y="1100" width="100" height="60" as="geometry" />
        </mxCell>
        <mxCell id="4TsLhCKxdJe9Ih-m7w37-19" style="edgeStyle=orthogonalEdgeStyle;rounded=0;orthogonalLoop=1;jettySize=auto;html=1;exitX=0.5;exitY=1;exitDx=0;exitDy=0;entryX=0.5;entryY=0;entryDx=0;entryDy=0;entryPerimeter=0;" parent="4TsLhCKxdJe9Ih-m7w37-1" source="4TsLhCKxdJe9Ih-m7w37-17" target="4TsLhCKxdJe9Ih-m7w37-18" edge="1">
          <mxGeometry relative="1" as="geometry" />
        </mxCell>
        <mxCell id="M9QDltxLTohxXzTE751H-2" style="edgeStyle=orthogonalEdgeStyle;rounded=0;orthogonalLoop=1;jettySize=auto;html=1;exitX=0.5;exitY=1;exitDx=0;exitDy=0;entryX=0.5;entryY=0;entryDx=0;entryDy=0;" parent="4TsLhCKxdJe9Ih-m7w37-1" source="M9QDltxLTohxXzTE751H-0" target="4TsLhCKxdJe9Ih-m7w37-6" edge="1">
          <mxGeometry relative="1" as="geometry" />
        </mxCell>
        <mxCell id="M9QDltxLTohxXzTE751H-0" value="Pilih data yang mau diubah" style="shape=parallelogram;html=1;strokeWidth=2;perimeter=parallelogramPerimeter;whiteSpace=wrap;rounded=1;arcSize=12;size=0.17250000000000001;" parent="4TsLhCKxdJe9Ih-m7w37-1" vertex="1">
          <mxGeometry x="314" y="200" width="200" height="60" as="geometry" />
        </mxCell>
        <mxCell id="W9r_whkdB9r9ILfZQcAg-0" value="Tidak" style="text;html=1;align=center;verticalAlign=middle;resizable=0;points=[];autosize=1;strokeColor=none;fillColor=none;" vertex="1" parent="4TsLhCKxdJe9Ih-m7w37-1">
          <mxGeometry x="414" y="1060" width="50" height="30" as="geometry" />
        </mxCell>
        <mxCell id="W9r_whkdB9r9ILfZQcAg-1" value="Ya" style="text;html=1;align=center;verticalAlign=middle;resizable=0;points=[];autosize=1;strokeColor=none;fillColor=none;" vertex="1" parent="4TsLhCKxdJe9Ih-m7w37-1">
          <mxGeometry x="700" y="668" width="40" height="30" as="geometry" />
        </mxCell>
        <mxCell id="W9r_whkdB9r9ILfZQcAg-3" value="Ya" style="text;html=1;align=center;verticalAlign=middle;resizable=0;points=[];autosize=1;strokeColor=none;fillColor=none;" vertex="1" parent="4TsLhCKxdJe9Ih-m7w37-1">
          <mxGeometry x="414" y="760" width="40" height="30" as="geometry" />
        </mxCell>
        <mxCell id="W9r_whkdB9r9ILfZQcAg-4" value="Tidak" style="text;html=1;align=center;verticalAlign=middle;resizable=0;points=[];autosize=1;strokeColor=none;fillColor=none;" vertex="1" parent="4TsLhCKxdJe9Ih-m7w37-1">
          <mxGeometry x="220" y="650" width="50" height="30" as="geometry" />
        </mxCell>
      </root>
    </mxGraphModel>
  </diagram>
  <diagram name="delete_data" id="E-EQo51qFNvtsnWKtyQj" />
  <diagram name="filter_data" id="6h7FWmvAnRdWiubgOPIw" />
  <diagram name="sort_data" id="rOyLPIY-yCBFSIpTAET7">
    <mxGraphModel dx="1207" dy="651" grid="1" gridSize="10" guides="1" tooltips="1" connect="1" arrows="1" fold="1" page="1" pageScale="1" pageWidth="827" pageHeight="1169" math="0" shadow="0">
      <root>
        <mxCell id="zYxBmpHz6tMXkz-W-Mkn-0" />
        <mxCell id="zYxBmpHz6tMXkz-W-Mkn-1" parent="zYxBmpHz6tMXkz-W-Mkn-0" />
        <mxCell id="zYxBmpHz6tMXkz-W-Mkn-2" value="Urutkan Data" style="text;strokeColor=none;align=center;fillColor=none;html=1;verticalAlign=middle;whiteSpace=wrap;rounded=0;fontStyle=1;fontSize=18;" vertex="1" parent="zYxBmpHz6tMXkz-W-Mkn-1">
          <mxGeometry y="10" width="140" height="30" as="geometry" />
        </mxCell>
        <mxCell id="zYxBmpHz6tMXkz-W-Mkn-3" style="edgeStyle=orthogonalEdgeStyle;rounded=0;orthogonalLoop=1;jettySize=auto;html=1;exitX=0.5;exitY=1;exitDx=0;exitDy=0;entryX=0.5;entryY=0;entryDx=0;entryDy=0;" edge="1" parent="zYxBmpHz6tMXkz-W-Mkn-1" source="zYxBmpHz6tMXkz-W-Mkn-4" target="zYxBmpHz6tMXkz-W-Mkn-13">
          <mxGeometry relative="1" as="geometry" />
        </mxCell>
        <mxCell id="zYxBmpHz6tMXkz-W-Mkn-4" value="&lt;font style=&quot;font-size: 12px;&quot;&gt;F&lt;/font&gt;" style="verticalLabelPosition=middle;verticalAlign=middle;html=1;shape=offPageConnector;rounded=0;size=0.6666666666666666;whiteSpace=wrap;textShadow=0;labelBorderColor=none;labelBackgroundColor=none;fontColor=default;labelPosition=center;align=center;" vertex="1" parent="zYxBmpHz6tMXkz-W-Mkn-1">
          <mxGeometry x="384" y="60" width="60" height="60" as="geometry" />
        </mxCell>
        <mxCell id="zYxBmpHz6tMXkz-W-Mkn-5" style="edgeStyle=orthogonalEdgeStyle;rounded=0;orthogonalLoop=1;jettySize=auto;html=1;exitX=0.5;exitY=1;exitDx=0;exitDy=0;entryX=0.5;entryY=0;entryDx=0;entryDy=0;" edge="1" parent="zYxBmpHz6tMXkz-W-Mkn-1" source="zYxBmpHz6tMXkz-W-Mkn-6" target="zYxBmpHz6tMXkz-W-Mkn-8">
          <mxGeometry relative="1" as="geometry" />
        </mxCell>
        <mxCell id="zYxBmpHz6tMXkz-W-Mkn-6" value="Proses mengurutkan data" style="rounded=1;whiteSpace=wrap;html=1;" vertex="1" parent="zYxBmpHz6tMXkz-W-Mkn-1">
          <mxGeometry x="341" y="440" width="146" height="80" as="geometry" />
        </mxCell>
        <mxCell id="zYxBmpHz6tMXkz-W-Mkn-7" style="edgeStyle=orthogonalEdgeStyle;rounded=0;orthogonalLoop=1;jettySize=auto;html=1;exitX=0.5;exitY=1;exitDx=0;exitDy=0;entryX=0.5;entryY=0;entryDx=0;entryDy=0;" edge="1" parent="zYxBmpHz6tMXkz-W-Mkn-1" source="zYxBmpHz6tMXkz-W-Mkn-8" target="zYxBmpHz6tMXkz-W-Mkn-9">
          <mxGeometry relative="1" as="geometry" />
        </mxCell>
        <mxCell id="zYxBmpHz6tMXkz-W-Mkn-8" value="Data berhasil di urutkan" style="shape=parallelogram;html=1;strokeWidth=2;perimeter=parallelogramPerimeter;whiteSpace=wrap;rounded=1;arcSize=12;size=0.23;" vertex="1" parent="zYxBmpHz6tMXkz-W-Mkn-1">
          <mxGeometry x="319" y="660" width="190" height="60" as="geometry" />
        </mxCell>
        <mxCell id="zYxBmpHz6tMXkz-W-Mkn-9" value="Apakah lanjut?" style="rhombus;whiteSpace=wrap;html=1;" vertex="1" parent="zYxBmpHz6tMXkz-W-Mkn-1">
          <mxGeometry x="355" y="820" width="117.37" height="120" as="geometry" />
        </mxCell>
        <mxCell id="zYxBmpHz6tMXkz-W-Mkn-10" value="Selesai" style="strokeWidth=2;html=1;shape=mxgraph.flowchart.terminator;whiteSpace=wrap;" vertex="1" parent="zYxBmpHz6tMXkz-W-Mkn-1">
          <mxGeometry x="364" y="1030" width="100" height="60" as="geometry" />
        </mxCell>
        <mxCell id="zYxBmpHz6tMXkz-W-Mkn-11" style="edgeStyle=orthogonalEdgeStyle;rounded=0;orthogonalLoop=1;jettySize=auto;html=1;exitX=0.5;exitY=1;exitDx=0;exitDy=0;entryX=0.5;entryY=0;entryDx=0;entryDy=0;entryPerimeter=0;" edge="1" parent="zYxBmpHz6tMXkz-W-Mkn-1" source="zYxBmpHz6tMXkz-W-Mkn-9" target="zYxBmpHz6tMXkz-W-Mkn-10">
          <mxGeometry relative="1" as="geometry" />
        </mxCell>
        <mxCell id="bKjHuDtNY0EXwiPWlUSw-0" style="edgeStyle=orthogonalEdgeStyle;rounded=0;orthogonalLoop=1;jettySize=auto;html=1;exitX=0.5;exitY=1;exitDx=0;exitDy=0;entryX=0.5;entryY=0;entryDx=0;entryDy=0;" edge="1" parent="zYxBmpHz6tMXkz-W-Mkn-1" source="zYxBmpHz6tMXkz-W-Mkn-13" target="zYxBmpHz6tMXkz-W-Mkn-6">
          <mxGeometry relative="1" as="geometry" />
        </mxCell>
        <mxCell id="zYxBmpHz6tMXkz-W-Mkn-13" value="masukkan nama kolom&lt;div&gt;yang di urutkan&lt;/div&gt;" style="shape=parallelogram;html=1;strokeWidth=2;perimeter=parallelogramPerimeter;whiteSpace=wrap;rounded=1;arcSize=12;size=0.17250000000000001;" vertex="1" parent="zYxBmpHz6tMXkz-W-Mkn-1">
          <mxGeometry x="314" y="200" width="200" height="60" as="geometry" />
        </mxCell>
        <mxCell id="zYxBmpHz6tMXkz-W-Mkn-14" style="edgeStyle=orthogonalEdgeStyle;rounded=0;orthogonalLoop=1;jettySize=auto;html=1;exitX=0;exitY=0.5;exitDx=0;exitDy=0;" edge="1" parent="zYxBmpHz6tMXkz-W-Mkn-1" source="zYxBmpHz6tMXkz-W-Mkn-9" target="zYxBmpHz6tMXkz-W-Mkn-13">
          <mxGeometry relative="1" as="geometry">
            <mxPoint x="350" y="880" as="sourcePoint" />
            <mxPoint x="330" y="224" as="targetPoint" />
            <Array as="points">
              <mxPoint x="160" y="880" />
              <mxPoint x="160" y="224" />
            </Array>
          </mxGeometry>
        </mxCell>
        <mxCell id="zYxBmpHz6tMXkz-W-Mkn-15" value="Ya" style="text;html=1;align=center;verticalAlign=middle;resizable=0;points=[];autosize=1;strokeColor=none;fillColor=none;" vertex="1" parent="zYxBmpHz6tMXkz-W-Mkn-1">
          <mxGeometry x="110" y="490" width="40" height="30" as="geometry" />
        </mxCell>
        <mxCell id="zYxBmpHz6tMXkz-W-Mkn-16" value="Tidak" style="text;html=1;align=center;verticalAlign=middle;resizable=0;points=[];autosize=1;strokeColor=none;fillColor=none;" vertex="1" parent="zYxBmpHz6tMXkz-W-Mkn-1">
          <mxGeometry x="414" y="970" width="50" height="30" as="geometry" />
        </mxCell>
      </root>
    </mxGraphModel>
  </diagram>
</mxfile>
